<svg xmlns="http://www.w3.org/2000/svg" viewBox="0 0 48 48"><defs><style>.cls-3{fill:#3d4360}.cls-4{fill:#231f20}</style></defs><g id="Cash_Flow" data-name="Cash Flow"><circle cx="24" cy="24" r="13" style="fill:#ffbc5a"/><path d="M24 11c-.338 0-.669.025-1 .05a12.987 12.987 0 0 1 0 25.9c.331.025.662.05 1 .05a13 13 0 0 0 0-26z" style="fill:#ef9d3a"/><path class="cls-3" d="M40.972 11a.997.997 0 0 1-.772-.363 21.002 21.002 0 0 0-32.4 0 1 1 0 0 1-1.542-1.274 23.002 23.002 0 0 1 35.485 0A1 1 0 0 1 40.972 11zM26 31h-4a3.003 3.003 0 0 1-3-3 1 1 0 0 1 2 0 1.001 1.001 0 0 0 1 1h4a1.001 1.001 0 0 0 1-1v-2a1.001 1.001 0 0 0-1-1h-4a3.003 3.003 0 0 1-3-3v-2a3.003 3.003 0 0 1 3-3h4a3.003 3.003 0 0 1 3 3 1 1 0 0 1-2 0 1.001 1.001 0 0 0-1-1h-4a1.001 1.001 0 0 0-1 1v2a1.001 1.001 0 0 0 1 1h4a3.003 3.003 0 0 1 3 3v2a3.003 3.003 0 0 1-3 3z"/><path class="cls-3" d="M24 19a1 1 0 0 1-1-1v-2a1 1 0 0 1 2 0v2a1 1 0 0 1-1 1zM24 33a1 1 0 0 1-1-1v-2a1 1 0 0 1 2 0v2a1 1 0 0 1-1 1zM13 11H7a1 1 0 0 1-1-1V4a1 1 0 0 1 2 0v5h5a1 1 0 0 1 0 2zM23.971 47A22.94 22.94 0 0 1 6.23 38.637a1 1 0 0 1 1.542-1.273 21.002 21.002 0 0 0 32.4 0 1 1 0 1 1 1.542 1.273A22.939 22.939 0 0 1 23.971 47z"/><path class="cls-3" d="M40.971 45a1 1 0 0 1-1-1v-5h-5a1 1 0 0 1 0-2h6a1 1 0 0 1 1 1v6a1 1 0 0 1-1 1z"/><path class="cls-4" d="M10.014 24a14 14 0 1 0 14-14 14.016 14.016 0 0 0-14 14zm26 0a12 12 0 1 1-12-12 12.014 12.014 0 0 1 12 12z"/><path class="cls-4" d="M23.014 16v1h-1a3.003 3.003 0 0 0-3 3v2a3.003 3.003 0 0 0 3 3h4a1.001 1.001 0 0 1 1 1v2a1.001 1.001 0 0 1-1 1h-4a1.001 1.001 0 0 1-1-1 1 1 0 0 0-2 0 3.003 3.003 0 0 0 3 3h1v1a1 1 0 0 0 2 0v-1h1a3.003 3.003 0 0 0 3-3v-2a3.003 3.003 0 0 0-3-3h-4a1.001 1.001 0 0 1-1-1v-2a1.001 1.001 0 0 1 1-1h4a1.001 1.001 0 0 1 1 1 1 1 0 0 0 2 0 3.003 3.003 0 0 0-3-3h-1v-1a1 1 0 1 0-2 0zM7.014 11h6a1 1 0 1 0 0-2H9.328a20.99 20.99 0 0 1 30.887 1.636 1 1 0 0 0 1.542-1.273A22.99 22.99 0 0 0 8.014 7.487V4a1 1 0 1 0-2 0v6a1 1 0 0 0 1 1zM40.986 37h-6a1 1 0 0 0 0 2h3.686a20.989 20.989 0 0 1-30.887-1.636 1 1 0 0 0-1.542 1.273 22.988 22.988 0 0 0 33.743 1.875V44a1 1 0 0 0 2 0v-6a1 1 0 0 0-1-1z"/></g></svg>